HIERARCHY
ROOT hip
{
	OFFSET 0.000000 0.000000 0.000000 
	CHANNELS 6 Xposition Yposition Zposition Xrotation Zrotation Yrotation
	JOINT abdomen
	{
		OFFSET 0.000000 3.402643 0.000000 
		CHANNELS 3 Xrotation Zrotation Yrotation
		JOINT chest
		{
			OFFSET 0.000000 8.438565 -0.680529 
			CHANNELS 3 Xrotation Zrotation Yrotation
			JOINT neck
			{
				OFFSET 0.000000 10.207942 -0.272212 
				CHANNELS 3 Xrotation Zrotation Yrotation
				JOINT head
				{
					OFFSET 0.000000 3.130431 0.000000 
					CHANNELS 3 Xrotation Zrotation Yrotation
					End Site
					{
						OFFSET 0.000000 3.130435 0.000000 
					}
				}
			}
			JOINT lCollar
			{
				OFFSET 3.470700 6.669187 -0.816635 
				CHANNELS 3 Yrotation Zrotation Xrotation
				JOINT lShldr
				{
					OFFSET 3.198488 0.000000 0.000000 
					CHANNELS 3 Zrotation Yrotation Xrotation
					JOINT lForeArm
					{
						OFFSET 10.139888 0.000000 0.000000 
						CHANNELS 3 Yrotation Zrotation Xrotation
						JOINT lHand
						{
							OFFSET 8.370511 0.000000 0.000000 
							CHANNELS 3 Zrotation Yrotation Xrotation
							End Site
							{
								OFFSET 4.083176 0.000000 0.000000 
							}
						}
					}
				}
			}
			JOINT rCollar
			{
				OFFSET -3.470700 6.669187 -0.816635 
				CHANNELS 3 Yrotation Zrotation Xrotation
				JOINT rShldr
				{
					OFFSET -3.198488 0.000000 0.000000 
					CHANNELS 3 Zrotation Yrotation Xrotation
					JOINT rForeArm
					{
						OFFSET -10.139888 0.000000 0.000000 
						CHANNELS 3 Yrotation Zrotation Xrotation
						JOINT rHand
						{
							OFFSET -8.370511 0.000000 0.000000 
							CHANNELS 3 Zrotation Yrotation Xrotation
							End Site
							{
								OFFSET -4.083176 0.000000 0.000000 
							}
						}
					}
				}
			}
		}
	}
	JOINT lThigh
	{
		OFFSET 5.308129 -1.633274 1.361059 
		CHANNELS 3 Xrotation Zrotation Yrotation
		JOINT lShin
		{
			OFFSET -2.041588 -20.007561 0.000000 
			CHANNELS 3 Xrotation Zrotation Yrotation
			JOINT lFoot
			{
				OFFSET 0.000000 -19.190928 -1.224953 
				CHANNELS 3 Xrotation Yrotation Zrotation
				End Site
				{
					OFFSET 0.000000 -2.449906 4.627600 
				}
			}
		}
	}
	JOINT rThigh
	{
		OFFSET -5.308129 -1.633274 1.361059 
		CHANNELS 3 Xrotation Zrotation Yrotation
		JOINT rShin
		{
			OFFSET 2.041588 -20.007561 0.000000 
			CHANNELS 3 Xrotation Zrotation Yrotation
			JOINT rFoot
			{
				OFFSET 0.000000 -19.190928 -1.224953 
				CHANNELS 3 Xrotation Yrotation Zrotation
				End Site
				{
					OFFSET 0.000000 -2.449906 4.627600 
				}
			}
		}
	}
}
MOTION
Frames: 19
Frame Time: 0.033333
0.041663 38.442051 -0.259500 -0.010809 -0.017476 -26.523439 -0.019531 0.000000 -0.019531 24.170414 7.145720 -20.172024 -8.544920 -0.009766 -0.009767 19.799641 16.861872 47.851227 1.992188 -2.001953 0.000341 -5.567827 -51.513821 -32.106785 -45.734711 -0.605131 8.538624 -37.841049 -54.129314 -162.096909 -2.001953 1.992188 0.000000 -29.123541 135.853836 -89.524277 54.093086 0.546395 8.608962 13.997560 -54.749004 -40.268414 -32.622173 23.363752 13.567613 30.750509 -1.183240 -2.506746 5.319269 -6.640194 -10.612622 3.456528 -18.319284 -12.537732 30.558737 1.129323 2.434801 -25.564213 -16.344000 16.998039 
0.041663 38.442623 -0.259500 -0.010809 -0.017476 -26.523439 -0.019531 0.000000 -0.019531 24.170414 7.145720 -20.172024 -8.544920 -0.009766 -0.009767 19.799641 16.861872 47.851227 1.992188 -2.001953 0.000341 -5.672845 -51.487747 -32.006321 -45.764774 -0.606777 8.541010 -37.816525 -54.129818 -162.062317 -2.001953 1.992188 0.000000 -29.215406 135.872528 -89.569290 54.113438 0.547520 8.610719 13.948927 -54.704979 -40.236771 -32.581371 23.352032 13.565942 30.692240 -1.173361 -2.501237 5.355676 -6.627467 -10.625253 3.483728 -18.305845 -12.539518 30.520039 1.129282 2.423099 -25.548368 -16.325344 16.998531 
0.041663 38.443195 -0.259500 -0.010809 -0.017476 -26.523439 -0.019531 0.000000 -0.019531 24.170414 7.145720 -20.172024 -8.544920 -0.009766 -0.009767 19.799641 16.861872 47.851227 1.992188 -2.001953 0.000341 -5.789898 -51.460541 -31.884546 -45.785275 -0.606991 8.544865 -37.792084 -54.130405 -162.035645 -2.001953 1.992188 0.000000 -29.305674 135.896149 -89.627167 54.135201 0.546905 8.618190 13.900392 -54.660915 -40.205105 -32.557911 23.348886 13.573472 30.652687 -1.188109 -2.502961 5.373177 -6.653284 -10.621685 3.524700 -18.309969 -12.543523 30.481335 1.129243 2.411398 -25.519482 -16.313694 17.021051 
0.041663 38.443714 -0.259500 -0.010809 -0.017476 -26.523439 -0.019531 0.000000 -0.019531 24.170414 7.145720 -20.172024 -8.544920 -0.009766 -0.009767 19.799641 16.861872 47.851227 1.992188 -2.001953 0.000341 -5.882392 -51.435158 -31.790159 -45.834534 -0.604513 8.537468 -37.767712 -54.131069 -162.001083 -2.001953 1.992188 0.000000 -29.405560 135.910080 -89.691811 54.165024 0.549472 8.617941 13.851955 -54.616814 -40.173416 -32.542408 23.332605 13.595850 30.632969 -1.183110 -2.510401 5.368661 -6.634785 -10.616656 3.533718 -18.298246 -12.553276 30.452040 1.129215 2.409902 -25.499065 -16.314463 16.999096 
0.041663 38.444233 -0.259500 -0.010809 -0.017476 -26.523439 -0.019531 0.000000 -0.019531 24.170414 7.145720 -20.172024 -8.544920 -0.009766 -0.009767 19.799641 16.861872 47.851227 1.992188 -2.001953 0.000341 -5.988069 -51.414787 -31.688158 -45.874157 -0.607604 8.538344 -37.754097 -54.125828 -161.954117 -2.001953 1.992188 0.000000 -29.495541 135.914383 -89.749603 54.186840 0.540951 8.619672 13.799677 -54.581455 -40.131306 -32.529606 23.330482 13.607797 30.622166 -1.192564 -2.531740 5.372162 -6.606344 -10.626771 3.552312 -18.285866 -12.554011 30.432503 1.129391 2.408955 -25.492178 -16.339350 17.007475 
0.041663 38.450989 -0.259500 -0.010809 -0.017476 -26.523439 -0.019531 0.000000 -0.019531 24.170414 7.145720 -20.172024 -8.544920 -0.009766 -0.009767 19.799641 16.861872 47.851227 1.992188 -2.001953 0.000341 -6.080289 -51.389168 -31.601439 -45.904289 -0.602252 8.533896 -37.736229 -54.125378 -161.934860 -2.001953 1.992188 0.000000 -29.587120 135.933487 -89.794464 54.196316 0.542386 8.617680 13.765209 -54.538925 -40.118534 -32.507698 23.327772 13.604689 30.583775 -1.183244 -2.517638 5.383534 -6.611282 -10.627587 3.552086 -18.285244 -12.563898 30.412661 1.138987 2.410367 -25.486515 -16.321619 17.009230 
0.041663 38.457745 -0.259500 -0.010809 -0.017476 -26.523439 -0.019531 0.000000 -0.019531 24.170414 7.145720 -20.172024 -8.544920 -0.009766 -0.009767 19.799641 16.861872 47.851227 1.992188 -2.001953 0.000341 -6.160229 -51.364483 -31.528419 -45.943916 -0.605349 8.534754 -37.707710 -54.130936 -161.928055 -2.001953 1.992188 0.000000 -29.668837 135.942917 -89.846069 54.215256 0.545256 8.613695 13.717487 -54.498692 -40.092304 -32.484619 23.323717 13.616930 30.555193 -1.183216 -2.496715 5.376598 -6.614619 -10.629544 3.561207 -18.283342 -12.574655 30.383358 1.139147 2.408918 -25.498772 -16.315155 16.965084 
0.041663 38.471146 -0.259500 -0.010809 -0.017476 -26.523439 -0.019531 0.000000 -0.019531 24.170414 7.145720 -20.172024 -8.544920 -0.009766 -0.009767 19.799641 16.861872 47.851227 1.992188 -2.001953 0.000341 -6.272509 -51.355335 -31.412727 -45.964409 -0.605580 8.538572 -37.699436 -54.128819 -161.885651 -2.001953 1.992188 0.000000 -29.758720 135.967041 -89.903748 54.224724 0.546691 8.611701 13.678766 -54.460918 -40.063595 -32.476448 23.335285 13.616412 30.544735 -1.193016 -2.508386 5.388623 -6.625448 -10.611860 3.573879 -18.290588 -12.585922 30.354065 1.139119 2.407420 -25.471651 -16.337627 16.999266 
0.041663 38.484539 -0.259500 -0.010809 -0.017476 -26.523439 -0.019531 0.000000 -0.019531 24.170414 7.145720 -20.172024 -8.544920 -0.009766 -0.009767 19.799641 16.861872 47.851227 1.992188 -2.001953 0.000341 -6.377709 -51.334450 -31.310797 -45.994469 -0.607253 8.540895 -37.671387 -54.122635 -161.865280 -2.001953 1.992188 0.000000 -29.848497 135.981506 -89.961372 54.235607 0.546393 8.615415 13.617515 -54.418961 -40.018353 -32.465782 23.334259 13.608117 30.534969 -1.193002 -2.507880 5.414794 -6.627643 -10.630251 3.601565 -18.276249 -12.597406 30.324049 1.139088 2.425337 -25.455128 -16.360039 17.010023 
0.041663 38.489002 -0.259500 -0.010809 -0.017476 -26.523439 -0.019531 0.000000 -0.019531 24.170414 7.145720 -20.172024 -8.544920 -0.009766 -0.009767 19.799641 16.861872 47.851227 1.992188 -2.001953 0.000341 -6.463101 -51.314877 -31.225641 -46.034088 -0.610364 8.541718 -37.652554 -54.126610 -161.835342 -2.001953 1.992188 0.000000 -29.939817 135.991196 -90.006088 54.255955 0.547532 8.617128 13.570051 -54.378632 -39.992085 -32.461197 23.340202 13.606378 30.525249 -1.202274 -2.500043 5.399206 -6.630795 -10.612750 3.601678 -18.267029 -12.586508 30.304876 1.139065 2.414630 -25.456217 -16.357708 16.999893 
0.041663 38.493465 -0.259500 -0.010809 -0.017476 -26.523439 -0.019531 0.000000 -0.019531 24.170414 7.145720 -20.172024 -8.544920 -0.009766 -0.009767 19.799641 16.861872 47.851227 1.992188 -2.001953 0.000341 -6.548393 -51.295200 -31.132862 -46.075157 -0.603824 8.542423 -37.633789 -54.130642 -161.805420 -2.001953 1.992188 0.000000 -30.021301 136.010742 -90.057556 54.276360 0.540746 8.613134 13.522675 -54.338280 -39.965805 -32.435642 23.323557 13.614708 30.476730 -1.192933 -2.495146 5.422690 -6.650812 -10.616397 3.620000 -18.253967 -12.597116 30.284990 1.139050 2.423339 -25.438414 -16.345457 16.987793 
0.041663 38.495701 -0.259500 -0.010809 -0.017476 -26.523439 -0.019531 0.000000 -0.019531 24.170414 7.145720 -20.172024 -8.544920 -0.009766 -0.009767 19.799641 16.861872 47.851227 1.992188 -2.001953 0.000341 -6.505759 -51.305054 -31.175442 -46.054657 -0.603577 8.538735 -37.646294 -54.127945 -161.828003 -2.001953 1.992188 0.000000 -29.975702 135.991196 -90.031822 54.265427 0.548967 8.615131 13.551010 -54.361702 -39.980473 -32.426823 23.314827 13.638000 30.466248 -1.192980 -2.514116 5.424742 -6.629178 -10.609407 3.629210 -18.273676 -12.580403 30.285025 1.148859 2.416080 -25.442202 -16.332479 16.993616 
0.041663 38.497936 -0.259500 -0.010809 -0.017476 -26.523439 -0.019531 0.000000 -0.019531 24.170414 7.145720 -20.172024 -8.544920 -0.009766 -0.009767 19.799641 16.861872 47.851227 1.992188 -2.001953 0.000341 -6.431301 -51.317425 -31.248461 -46.035542 -0.600707 8.541615 -37.673534 -54.126484 -161.824036 -2.001953 1.992188 0.000000 -29.930050 135.981430 -90.006088 54.245075 0.547827 8.613420 13.579375 -54.385109 -39.995129 -32.399738 23.317383 13.642748 30.417780 -1.192875 -2.501827 5.450799 -6.624064 -10.615254 3.642012 -18.271664 -12.580763 30.256498 1.147184 2.394745 -25.423763 -16.321289 16.992382 
0.041663 38.500168 -0.259500 -0.010809 -0.017476 -26.523439 -0.019531 0.000000 -0.019531 24.170414 7.145720 -20.172024 -8.544920 -0.009766 -0.009767 19.799641 16.861872 47.851227 1.992188 -2.001953 0.000341 -6.382272 -51.333717 -31.292557 -46.015038 -0.600466 8.537916 -37.686085 -54.123833 -161.838730 -2.001953 1.992188 0.000000 -29.858265 135.971725 -89.961372 54.235607 0.546393 8.615415 13.608184 -54.412487 -40.015308 -32.380836 23.308382 13.648012 30.388666 -1.197779 -2.491843 5.460958 -6.626473 -10.625405 3.660548 -18.259174 -12.581479 30.227108 1.138997 2.400933 -25.413185 -16.321884 17.004026 
0.041663 38.502403 -0.259500 -0.010809 -0.017476 -26.523439 -0.019531 0.000000 -0.019531 24.170414 7.145720 -20.172024 -8.544920 -0.009766 -0.009767 19.799641 16.861872 47.851227 1.992188 -2.001953 0.000341 -6.321062 -51.351051 -31.350346 -45.994469 -0.607253 8.540895 -37.682827 -54.124252 -161.877167 -2.001953 1.992188 0.000000 -29.786451 135.971863 -89.916634 54.226131 0.544958 8.617410 13.637026 -54.439857 -40.035484 -32.369591 23.306673 13.649327 30.359364 -1.197936 -2.490378 5.469826 -6.616145 -10.641503 3.679187 -18.256508 -12.583210 30.197809 1.139162 2.399487 -25.392689 -16.323362 16.981441 
0.041663 38.504639 -0.259500 -0.010809 -0.017476 -26.523439 -0.019531 0.000000 -0.019531 24.170414 7.145720 -20.172024 -8.544920 -0.009766 -0.009767 19.799641 16.861872 47.851227 1.992188 -2.001953 0.000341 -6.246448 -51.363255 -31.423391 -45.973972 -0.607016 8.537085 -37.710121 -54.122841 -161.873215 -2.001953 1.992188 0.000000 -29.722780 135.957367 -89.877960 54.216663 0.543522 8.619405 13.665906 -54.467205 -40.055645 -32.351280 23.298250 13.645090 30.330236 -1.192971 -2.487632 5.458313 -6.638090 -10.630233 3.679067 -18.246664 -12.582190 30.168198 1.148747 2.400376 -25.387749 -16.339561 16.996162 
0.041663 38.506866 -0.259500 -0.010809 -0.017476 -26.523439 -0.019531 0.000000 -0.019531 24.170414 7.145720 -20.172024 -8.544920 -0.009766 -0.009767 19.799641 16.861872 47.851227 1.992188 -2.001953 0.000341 -6.185113 -51.380486 -31.481192 -45.945293 -0.602709 8.541544 -37.722744 -54.120266 -161.895828 -2.001953 1.992188 0.000000 -29.668837 135.942917 -89.846069 54.207138 0.550007 8.627110 13.707689 -54.488262 -40.083748 -32.336979 23.283306 13.648221 30.320112 -1.192958 -2.496834 5.455251 -6.629199 -10.627262 3.678948 -18.236826 -12.581172 30.138538 1.148917 2.408636 -25.373997 -16.353365 16.987110 
0.041663 38.509102 -0.259500 -0.010809 -0.017476 -26.523439 -0.019531 0.000000 -0.019531 24.170414 7.145720 -20.172024 -8.544920 -0.009766 -0.009767 19.799641 16.861872 47.851227 1.992188 -2.001953 0.000341 -6.130107 -51.391167 -31.545105 -45.924793 -0.602478 8.537723 -37.728706 -54.130852 -161.916763 -2.001953 1.992188 0.000000 -29.614891 135.938248 -89.807373 54.196259 0.550305 8.623393 13.732711 -54.524357 -40.093483 -32.309303 23.285183 13.662577 30.261515 -1.192892 -2.493809 5.486857 -6.624632 -10.623063 3.688033 -18.234875 -12.591924 30.089708 1.148860 2.406136 -25.343563 -16.350096 16.991899 
0.041663 38.511337 -0.259500 -0.010809 -0.017476 -26.523439 -0.019531 0.000000 -0.019531 24.170414 7.145720 -20.172024 -8.544920 -0.009766 -0.009767 19.799641 16.861872 47.851227 1.992188 -2.001953 0.000341 -6.068665 -51.408298 -31.602913 -45.904289 -0.602252 8.533896 -37.757233 -54.125294 -161.923569 -2.001953 1.992188 0.000000 -29.560892 135.923859 -89.775452 54.186840 0.540951 8.619672 13.761703 -54.551670 -40.113621 -32.284634 23.280708 13.689278 30.232426 -1.207586 -2.476547 5.514655 -6.645454 -10.616981 3.709927 -18.230854 -12.603022 30.041235 1.148813 2.393931 -25.326788 -16.333061 16.994574 
